<svg xmlns="http://www.w3.org/2000/svg" xmlns:v="https://svgstorm.com"
viewBox = "0 0 512 512"
width="512"
height="512">
<g fill="None" fill-opacity="0.0" stroke="#000000" stroke-opacity="0.00" stroke-width="0.3"><path d="
M 0.00 512.00 
L 512.00 512.00
L 512.00 0.00
L 0.00 0.00
L 0.00 512.00
M 281.00 13.00 
C 342.84 18.98 393.25 49.51 435.75 97.25 C 478.25 144.99 494.58 219.53 487.67 283.67 C 480.76 347.81 452.11 395.51 403.75 438.75 C 355.39 482.00 281.83 497.12 217.33 490.67 C 152.83 484.22 105.57 454.91 62.25 406.75 C 18.93 358.59 3.43 284.65 10.33 220.33 C 17.23 156.01 45.11 108.53 94.25 65.25 C 143.39 21.97 214.28 6.54 281.00 13.00 Z"/>
</g>
<g fill="None" fill-opacity="0.0" stroke="#494949" stroke-opacity="1.00" stroke-width="0.3"><path d="
M 281.00 13.00 
C 214.28 6.54 143.39 21.97 94.25 65.25 C 45.11 108.53 17.23 156.01 10.33 220.33 C 3.43 284.65 18.93 358.59 62.25 406.75 C 105.57 454.91 152.83 484.22 217.33 490.67 C 281.83 497.12 355.39 482.00 403.75 438.75 C 452.11 395.51 480.76 347.81 487.67 283.67 C 494.58 219.53 478.25 144.99 435.75 97.25 C 393.25 49.51 342.84 18.98 281.00 13.00
M 125.00 135.00 
C 155.19 140.41 162.72 173.80 173.31 197.69 C 183.89 221.59 199.14 245.62 226.23 256.77 C 253.32 267.93 286.06 255.42 304.75 231.75 C 323.44 208.08 328.55 185.07 343.77 158.77 C 359.00 132.47 396.53 130.26 418.08 150.92 C 439.63 171.58 452.68 191.99 460.32 220.68 C 467.97 249.37 466.84 291.11 458.22 319.22 C 449.60 347.34 438.15 370.06 419.25 392.25 C 400.35 414.44 384.70 429.46 358.92 442.92 C 333.15 456.39 304.98 467.06 274.78 470.78 C 244.58 474.50 204.10 469.70 176.78 459.22 C 149.45 448.75 126.70 438.60 104.77 419.23 C 82.84 399.86 69.70 381.49 55.23 356.77 C 40.76 332.05 33.81 296.25 33.00 267.00 C 32.19 237.75 40.73 201.31 56.92 178.92 C 73.11 156.53 94.89 129.60 125.00 135.00 Z"/>
</g>
<g fill="None" fill-opacity="0.0" stroke="#111111" stroke-opacity="1.00" stroke-width="0.3"><path d="
M 125.00 135.00 
C 94.89 129.60 73.11 156.53 56.92 178.92 C 40.73 201.31 32.19 237.75 33.00 267.00 C 33.81 296.25 40.76 332.05 55.23 356.77 C 69.70 381.49 82.84 399.86 104.77 419.23 C 126.70 438.60 149.45 448.75 176.78 459.22 C 204.10 469.70 244.58 474.50 274.78 470.78 C 304.98 467.06 333.15 456.39 358.92 442.92 C 384.70 429.46 400.35 414.44 419.25 392.25 C 438.15 370.06 449.60 347.34 458.22 319.22 C 466.84 291.11 467.97 249.37 460.32 220.68 C 452.68 191.99 439.63 171.58 418.08 150.92 C 396.53 130.26 359.00 132.47 343.77 158.77 C 328.55 185.07 323.44 208.08 304.75 231.75 C 286.06 255.42 253.32 267.93 226.23 256.77 C 199.14 245.62 183.89 221.59 173.31 197.69 C 162.72 173.80 155.19 140.41 125.00 135.00
M 121.00 208.00 
C 141.80 211.38 152.82 234.15 169.25 247.75 C 185.67 261.35 203.46 276.41 226.07 279.93 C 248.68 283.45 281.09 281.89 300.70 269.70 C 320.30 257.50 333.41 246.67 348.75 228.75 C 364.10 210.84 387.86 199.96 406.75 218.25 C 425.65 236.53 429.96 258.60 429.02 283.02 C 428.09 307.45 419.77 330.70 407.25 350.25 C 394.72 369.79 383.08 382.32 365.75 397.75 C 348.42 413.19 331.40 422.54 309.78 430.78 C 288.15 439.02 254.27 441.74 230.00 440.00 C 205.73 438.26 181.98 430.20 161.78 419.22 C 141.57 408.24 129.56 394.84 113.25 378.75 C 96.93 362.67 86.39 345.79 78.08 324.92 C 69.77 304.05 66.04 270.52 72.93 248.93 C 79.81 227.34 95.35 203.83 121.00 208.00 Z"/>
</g>
<g fill="None" fill-opacity="0.0" stroke="#484848" stroke-opacity="1.00" stroke-width="0.3"><path d="
M 121.00 208.00 
C 95.35 203.83 79.81 227.34 72.93 248.93 C 66.04 270.52 69.77 304.05 78.08 324.92 C 86.39 345.79 96.93 362.67 113.25 378.75 C 129.56 394.84 141.57 408.24 161.78 419.22 C 181.98 430.20 205.73 438.26 230.00 440.00 C 254.27 441.74 288.15 439.02 309.78 430.78 C 331.40 422.54 348.42 413.19 365.75 397.75 C 383.08 382.32 394.72 369.79 407.25 350.25 C 419.77 330.70 428.09 307.45 429.02 283.02 C 429.96 258.60 425.65 236.53 406.75 218.25 C 387.86 199.96 364.10 210.84 348.75 228.75 C 333.41 246.67 320.30 257.50 300.70 269.70 C 281.09 281.89 248.68 283.45 226.07 279.93 C 203.46 276.41 185.67 261.35 169.25 247.75 C 152.82 234.15 141.80 211.38 121.00 208.00 Z"/>
</g>
<g fill="#000000" fill-opacity="0.00" stroke="None">
<path d="
M 0.00 512.00 
L 512.00 512.00
L 512.00 0.00
L 0.00 0.00
L 0.00 512.00
M 281.00 13.00 
C 342.84 18.98 393.25 49.51 435.75 97.25 C 478.25 144.99 494.58 219.53 487.67 283.67 C 480.76 347.81 452.11 395.51 403.75 438.75 C 355.39 482.00 281.83 497.12 217.33 490.67 C 152.83 484.22 105.57 454.91 62.25 406.75 C 18.93 358.59 3.43 284.65 10.33 220.33 C 17.23 156.01 45.11 108.53 94.25 65.25 C 143.39 21.97 214.28 6.54 281.00 13.00 Z"/>
</g>
<g fill="#494949" fill-opacity="1.00" stroke="None">
<path d="
M 281.00 13.00 
C 214.28 6.54 143.39 21.97 94.25 65.25 C 45.11 108.53 17.23 156.01 10.33 220.33 C 3.43 284.65 18.93 358.59 62.25 406.75 C 105.57 454.91 152.83 484.22 217.33 490.67 C 281.83 497.12 355.39 482.00 403.75 438.75 C 452.11 395.51 480.76 347.81 487.67 283.67 C 494.58 219.53 478.25 144.99 435.75 97.25 C 393.25 49.51 342.84 18.98 281.00 13.00
M 125.00 135.00 
C 155.19 140.41 162.72 173.80 173.31 197.69 C 183.89 221.59 199.14 245.62 226.23 256.77 C 253.32 267.93 286.06 255.42 304.75 231.75 C 323.44 208.08 328.55 185.07 343.77 158.77 C 359.00 132.47 396.53 130.26 418.08 150.92 C 439.63 171.58 452.68 191.99 460.32 220.68 C 467.97 249.37 466.84 291.11 458.22 319.22 C 449.60 347.34 438.15 370.06 419.25 392.25 C 400.35 414.44 384.70 429.46 358.92 442.92 C 333.15 456.39 304.98 467.06 274.78 470.78 C 244.58 474.50 204.10 469.70 176.78 459.22 C 149.45 448.75 126.70 438.60 104.77 419.23 C 82.84 399.86 69.70 381.49 55.23 356.77 C 40.76 332.05 33.81 296.25 33.00 267.00 C 32.19 237.75 40.73 201.31 56.92 178.92 C 73.11 156.53 94.89 129.60 125.00 135.00 Z"/>
</g>
<g fill="#111111" fill-opacity="1.00" stroke="None">
<path d="
M 125.00 135.00 
C 94.89 129.60 73.11 156.53 56.92 178.92 C 40.73 201.31 32.19 237.75 33.00 267.00 C 33.81 296.25 40.76 332.05 55.23 356.77 C 69.70 381.49 82.84 399.86 104.77 419.23 C 126.70 438.60 149.45 448.75 176.78 459.22 C 204.10 469.70 244.58 474.50 274.78 470.78 C 304.98 467.06 333.15 456.39 358.92 442.92 C 384.70 429.46 400.35 414.44 419.25 392.25 C 438.15 370.06 449.60 347.34 458.22 319.22 C 466.84 291.11 467.97 249.37 460.32 220.68 C 452.68 191.99 439.63 171.58 418.08 150.92 C 396.53 130.26 359.00 132.47 343.77 158.77 C 328.55 185.07 323.44 208.08 304.75 231.75 C 286.06 255.42 253.32 267.93 226.23 256.77 C 199.14 245.62 183.89 221.59 173.31 197.69 C 162.72 173.80 155.19 140.41 125.00 135.00
M 121.00 208.00 
C 141.80 211.38 152.82 234.15 169.25 247.75 C 185.67 261.35 203.46 276.41 226.07 279.93 C 248.68 283.45 281.09 281.89 300.70 269.70 C 320.30 257.50 333.41 246.67 348.75 228.75 C 364.10 210.84 387.86 199.96 406.75 218.25 C 425.65 236.53 429.96 258.60 429.02 283.02 C 428.09 307.45 419.77 330.70 407.25 350.25 C 394.72 369.79 383.08 382.32 365.75 397.75 C 348.42 413.19 331.40 422.54 309.78 430.78 C 288.15 439.02 254.27 441.74 230.00 440.00 C 205.73 438.26 181.98 430.20 161.78 419.22 C 141.57 408.24 129.56 394.84 113.25 378.75 C 96.93 362.67 86.39 345.79 78.08 324.92 C 69.77 304.05 66.04 270.52 72.93 248.93 C 79.81 227.34 95.35 203.83 121.00 208.00 Z"/>
</g>
<g fill="#484848" fill-opacity="1.00" stroke="None">
<path d="
M 121.00 208.00 
C 95.35 203.83 79.81 227.34 72.93 248.93 C 66.04 270.52 69.77 304.05 78.08 324.92 C 86.39 345.79 96.93 362.67 113.25 378.75 C 129.56 394.84 141.57 408.24 161.78 419.22 C 181.98 430.20 205.73 438.26 230.00 440.00 C 254.27 441.74 288.15 439.02 309.78 430.78 C 331.40 422.54 348.42 413.19 365.75 397.75 C 383.08 382.32 394.72 369.79 407.25 350.25 C 419.77 330.70 428.09 307.45 429.02 283.02 C 429.96 258.60 425.65 236.53 406.75 218.25 C 387.86 199.96 364.10 210.84 348.75 228.75 C 333.41 246.67 320.30 257.50 300.70 269.70 C 281.09 281.89 248.68 283.45 226.07 279.93 C 203.46 276.41 185.67 261.35 169.25 247.75 C 152.82 234.15 141.80 211.38 121.00 208.00 Z"/>
</g>
</svg>